
<svg width="13px" height="13px" viewBox="0 0 13 13" version="1.1" xmlns="http://www.w3.org/2000/svg" xmlns:xlink="http://www.w3.org/1999/xlink">
    <g id="Page-1" stroke="none" stroke-width="1" fill="none" fill-rule="evenodd">
        <g id="Исп-на-выполнении" transform="translate(-855.000000, -219.000000)" fill="#4EBD17" fill-rule="nonzero">
            <g id="Group-6" transform="translate(855.000000, 216.000000)">
                <g id="Group-11" transform="translate(0.000000, 3.000000)">
                    <path d="M6.5,0 C2.91586579,0 0,2.91586579 0,6.5 C0,10.0841342 2.91586579,13 6.5,13 C10.0841342,13 13,10.0841342 13,6.5 C13,2.91586579 10.0841342,0 6.5,0 Z M6.5,11.6315789 C3.67044737,11.6315789 1.36842105,9.32955263 1.36842105,6.5 C1.36842105,3.67044737 3.67044737,1.36842105 6.5,1.36842105 C9.32955263,1.36842105 11.6315789,3.67044737 11.6315789,6.5 C11.6315789,9.32955263 9.32955263,11.6315789 6.5,11.6315789 Z" id="Shape"></path>
                    <g id="clock-(3)" transform="translate(5.000000, 2.000000)">
                        <path d="M4.98923421,4.29925263 L2.45091579,4.29925263 C2.35868421,4.14896579 2.23186579,4.02214737 2.08157895,3.92991579 L2.08157895,0.878439474 C2.08157895,0.557236842 1.82120263,0.296860526 1.5,0.296860526 C1.17879737,0.296860526 0.918421053,0.557236842 0.918421053,0.878439474 L0.918421053,3.92991579 C0.598723684,4.12618158 0.384976316,4.47899474 0.384976316,4.88083158 C0.384976316,5.49566316 0.885202632,5.99585526 1.5,5.99585526 C1.90183684,5.99585526 2.25465,5.78210789 2.45091579,5.46241053 L4.98923421,5.46241053 C5.31043684,5.46241053 5.57081316,5.20203421 5.57081316,4.88083158 C5.57081316,4.55962895 5.31043684,4.29925263 4.98923421,4.29925263 Z" id="Shape"></path>
                    </g>
                </g>
            </g>
        </g>
    </g>
</svg>