<svg width="58" height="31" viewBox="0 0 58 31" fill="none" xmlns="http://www.w3.org/2000/svg">
<path d="M55 0H3C1.34315 0 0 1.34315 0 3V28C0 29.6569 1.34315 31 3 31H55C56.6569 31 58 29.6569 58 28V3C58 1.34315 56.6569 0 55 0Z" fill="#313131"/>
<path d="M41.5046 25.2994V25.3513H41.5538C41.563 25.3514 41.5721 25.3491 41.5801 25.3447C41.5834 25.3424 41.5859 25.3394 41.5877 25.336C41.5894 25.3325 41.5902 25.3286 41.59 25.3248C41.5902 25.3211 41.5894 25.3173 41.5876 25.3139C41.5859 25.3105 41.5834 25.3076 41.5801 25.3055C41.5722 25.3008 41.563 25.2985 41.5538 25.2989H41.5046V25.2994ZM41.5543 25.2627C41.5754 25.2615 41.5963 25.2674 41.6134 25.2796C41.6203 25.2851 41.6257 25.2921 41.6293 25.3001C41.6329 25.308 41.6346 25.3168 41.6341 25.3255C41.6344 25.333 41.6331 25.3404 41.6302 25.3474C41.6274 25.3544 41.623 25.3607 41.6175 25.3658C41.6043 25.3771 41.5877 25.3838 41.5702 25.3851L41.6362 25.459H41.5855L41.5248 25.3856H41.5051V25.459H41.4627V25.2628H41.555L41.5543 25.2627ZM41.5412 25.5267C41.5634 25.5269 41.5855 25.5225 41.6059 25.5138C41.6255 25.5054 41.6435 25.4935 41.6586 25.4786C41.6739 25.4637 41.6859 25.4461 41.6943 25.4268C41.7117 25.3856 41.7117 25.3395 41.6943 25.2983C41.6858 25.279 41.6737 25.2615 41.6586 25.2465C41.6435 25.2316 41.6255 25.2197 41.6059 25.2114C41.5853 25.2031 41.5633 25.1989 41.5412 25.1991C41.5186 25.199 41.4961 25.2031 41.4752 25.2114C41.4551 25.2195 41.4368 25.2315 41.4212 25.2465C41.3979 25.2701 41.3822 25.2998 41.3759 25.3321C41.3696 25.3644 41.3731 25.3977 41.386 25.428C41.3941 25.4475 41.406 25.4651 41.4212 25.4799C41.4368 25.495 41.4551 25.5069 41.4752 25.515C41.496 25.5238 41.5185 25.5282 41.5412 25.5281V25.5267ZM41.5412 25.1519C41.5991 25.1519 41.6548 25.1743 41.696 25.2142C41.716 25.2334 41.7319 25.2563 41.7428 25.2815C41.7541 25.3074 41.7598 25.3353 41.7598 25.3635C41.7598 25.3917 41.7541 25.4196 41.7428 25.4455C41.7316 25.4706 41.7158 25.4935 41.696 25.5129C41.6759 25.5319 41.6523 25.5473 41.6266 25.5582C41.5995 25.5695 41.5705 25.5753 41.5412 25.5751C41.5114 25.5753 41.482 25.5696 41.4546 25.5582C41.4286 25.5476 41.4048 25.5322 41.3846 25.5129C41.3648 25.4928 41.3492 25.4692 41.3385 25.4433C41.3272 25.4174 41.3214 25.3895 41.3214 25.3614C41.3214 25.3331 41.3272 25.3052 41.3385 25.2793C41.3494 25.2541 41.3653 25.2312 41.3852 25.212C41.4052 25.1924 41.429 25.1769 41.4552 25.1666C41.4826 25.1553 41.5121 25.1495 41.5418 25.1498L41.5412 25.1519ZM21.3469 24.3943C21.3469 24.0201 21.5962 23.7128 22.0036 23.7128C22.3929 23.7128 22.6556 24.007 22.6556 24.3943C22.6556 24.7817 22.3929 25.0757 22.0036 25.0757C21.5962 25.0757 21.3469 24.7684 21.3469 24.3943ZM23.0994 24.3943V23.3297H22.6287V23.589C22.4794 23.3973 22.253 23.2771 21.945 23.2771C21.3384 23.2771 20.8622 23.745 20.8622 24.3948C20.8622 25.0446 21.338 25.5125 21.945 25.5125C22.2528 25.5125 22.4794 25.3921 22.6287 25.2006V25.459H23.0989V24.3943H23.0994ZM39.0037 24.3943C39.0037 24.0201 39.2529 23.7128 39.6604 23.7128C40.0502 23.7128 40.3125 24.007 40.3125 24.3943C40.3125 24.7817 40.0502 25.0757 39.6604 25.0757C39.253 25.0757 39.0037 24.7684 39.0037 24.3943ZM40.7567 24.3943V22.4751H40.2856V23.589C40.1363 23.3973 39.9098 23.2771 39.6019 23.2771C38.9952 23.2771 38.5191 23.745 38.5191 24.3948C38.5191 25.0446 38.995 25.5125 39.6019 25.5125C39.9098 25.5125 40.1363 25.3921 40.2856 25.2006V25.459H40.7567V24.3943ZM28.9414 23.6909C29.2447 23.6909 29.4395 23.8779 29.4892 24.2071H28.3661C28.4164 23.8999 28.6061 23.6909 28.9415 23.6909H28.9414ZM28.9509 23.276C28.3165 23.276 27.8727 23.7298 27.8727 24.3936C27.8727 25.0704 28.3343 25.5113 28.9824 25.5113C29.3084 25.5113 29.607 25.4313 29.8697 25.213L29.639 24.8701C29.4576 25.0127 29.2265 25.0927 29.0093 25.0927C28.706 25.0927 28.4298 24.9546 28.3618 24.5714H29.9691C29.9738 24.5138 29.9785 24.4558 29.9785 24.3935C29.9738 23.73 29.5565 23.2758 28.9506 23.2758L28.9509 23.276ZM34.6335 24.3935C34.6335 24.0194 34.8827 23.7121 35.2901 23.7121C35.6795 23.7121 35.9422 24.0062 35.9422 24.3935C35.9422 24.7808 35.6795 25.0749 35.2901 25.0749C34.8827 25.0749 34.6334 24.7676 34.6334 24.3935H34.6335ZM36.3859 24.3935V23.3297H35.9155V23.589C35.7656 23.3973 35.5397 23.2771 35.2318 23.2771C34.6251 23.2771 34.149 23.745 34.149 24.3948C34.149 25.0446 34.6248 25.5125 35.2318 25.5125C35.5397 25.5125 35.7656 25.3921 35.9155 25.2006V25.459H36.386V24.3943L36.3859 24.3935ZM31.9754 24.3935C31.9754 25.0392 32.4325 25.5112 33.1301 25.5112C33.4562 25.5112 33.6734 25.4399 33.9083 25.2574L33.6822 24.8833C33.5055 25.0082 33.3199 25.0749 33.1151 25.0749C32.7394 25.0704 32.4631 24.8033 32.4631 24.3935C32.4631 23.9837 32.7394 23.7167 33.1151 23.7121C33.3194 23.7121 33.505 23.7789 33.6822 23.9037L33.9083 23.5296C33.673 23.3471 33.4558 23.2758 33.1301 23.2758C32.4325 23.2758 31.9754 23.7477 31.9754 24.3935ZM38.0434 23.2758C37.7718 23.2758 37.595 23.4007 37.4727 23.5877V23.3297H37.0062V25.4578H37.4775V24.2649C37.4775 23.9126 37.6314 23.717 37.939 23.717C38.0398 23.7156 38.1399 23.7338 38.2334 23.7705L38.3785 23.3343C38.2744 23.294 38.1385 23.2762 38.0431 23.2762L38.0434 23.2758ZM25.4265 23.4989C25.2001 23.3521 24.888 23.2762 24.5438 23.2762C23.9955 23.2762 23.6424 23.5347 23.6424 23.9575C23.6424 24.3046 23.9052 24.5186 24.3892 24.5854L24.6116 24.6166C24.8697 24.6522 24.9916 24.719 24.9916 24.8392C24.9916 25.0038 24.8201 25.0976 24.4982 25.0976C24.1722 25.0976 23.9368 24.9952 23.7782 24.875L23.5571 25.2359C23.8151 25.4229 24.1412 25.5121 24.4942 25.5121C25.1193 25.5121 25.4816 25.2226 25.4816 24.8174C25.4816 24.4433 25.1965 24.2476 24.7254 24.1808L24.5036 24.1492C24.2998 24.1233 24.1365 24.0829 24.1365 23.9403C24.1365 23.7847 24.2905 23.6911 24.5487 23.6911C24.825 23.6911 25.0924 23.7935 25.2235 23.8735L25.4273 23.4994L25.4265 23.4989ZM31.5 23.2766C31.2284 23.2766 31.0515 23.4015 30.9298 23.5885V23.3297H30.4633V25.4578H30.934V24.2649C30.934 23.9126 31.0879 23.717 31.3956 23.717C31.4964 23.7156 31.5964 23.7338 31.69 23.7705L31.835 23.3343C31.7309 23.294 31.595 23.2762 31.4996 23.2762L31.5 23.2766ZM27.4833 23.3297H26.7136V22.684H26.2377V23.3297H25.7987V23.7527H26.2377V24.7235C26.2377 25.2174 26.4327 25.5114 26.9895 25.5114C27.1937 25.5114 27.4291 25.4492 27.5783 25.3469L27.4424 24.9506C27.3019 25.0306 27.148 25.0709 27.0256 25.0709C26.7904 25.0709 26.7136 24.9283 26.7136 24.7147V23.7531H27.4833V23.3297ZM20.446 25.4584V24.1227C20.446 23.6197 20.12 23.2813 19.5944 23.2768C19.3181 23.2722 19.0331 23.3567 18.8336 23.6554C18.6843 23.4194 18.449 23.2768 18.1183 23.2768C17.8871 23.2768 17.6612 23.3436 17.4843 23.5927V23.3297H17.0132V25.4578H17.4879V24.2778C17.4879 23.9084 17.6963 23.7121 18.0181 23.7121C18.3307 23.7121 18.4889 23.9124 18.4889 24.2732V25.4576H18.9647V24.2776C18.9647 23.9082 19.1819 23.7118 19.4943 23.7118C19.8157 23.7118 19.9691 23.9122 19.9691 24.2729V25.4574L20.446 25.4584Z" fill="white"/>
<path d="M32.4798 20.1501H24.7466V6.9751H32.4799L32.4798 20.1501Z" fill="#FF5F00"/>
<path d="M25.5099 13.5623C25.5099 10.9668 26.7235 8.6547 28.6133 7.16468C27.1829 6.03515 25.4136 5.42212 23.5919 5.42481C19.1044 5.42481 15.4668 9.06804 15.4668 13.5623C15.4668 18.0566 19.1044 21.6998 23.5919 21.6998C25.4136 21.7025 27.183 21.0895 28.6135 19.9599C26.7238 18.4701 25.5099 16.1579 25.5099 13.5623Z" fill="#EB001B"/>
<path d="M41.7599 13.5623C41.7599 18.0566 38.1225 21.6998 33.6352 21.6998C31.8134 21.7024 30.044 21.0894 28.6133 19.9599C30.5035 18.4699 31.7171 16.1579 31.7171 13.5623C31.7171 10.9667 30.5035 8.6547 28.6133 7.16468C30.0439 6.03519 31.8133 5.42216 33.6352 5.42481C38.1223 5.42481 41.7598 9.06804 41.7598 13.5623" fill="#F79E1B"/>
</svg>
