<svg width="57" height="31" viewBox="0 0 57 31" fill="none" xmlns="http://www.w3.org/2000/svg">
<path d="M54 0H3C1.34315 0 0 1.34315 0 3V28C0 29.6569 1.34314 31 3 31H54C55.6569 31 57 29.6569 57 28V3C57 1.34315 55.6569 0 54 0Z" fill="#313131"/>
<path d="M25.1891 22.8505H21.5924L23.8403 8.77639H27.4375L25.1891 22.8505ZM18.5664 8.77639L15.1374 18.4567L14.7316 16.3722L14.732 16.3729L13.5217 10.0436C13.5217 10.0436 13.3754 8.77639 11.8155 8.77639H6.1466L6.08008 9.01469C6.08008 9.01469 7.81364 9.38214 9.84246 10.6234L12.9674 22.8509H16.715L22.4375 8.77639H18.5664ZM46.8574 22.8505H50.1601L47.2805 8.77601H44.3892C43.054 8.77601 42.7288 9.82487 42.7288 9.82487L37.3644 22.8505H41.1139L41.8637 20.76H46.4362L46.8574 22.8505ZM42.8995 17.872L44.7894 12.6051L45.8526 17.872H42.8995ZM37.6456 12.1609L38.1589 9.13856C38.1589 9.13856 36.575 8.5249 34.9239 8.5249C33.139 8.5249 28.9002 9.31964 28.9002 13.1841C28.9002 16.8201 33.8751 16.8653 33.8751 18.7752C33.8751 20.685 29.4128 20.3428 27.9401 19.1384L27.4054 22.2986C27.4054 22.2986 29.0114 23.0934 31.4652 23.0934C33.9198 23.0934 37.6227 21.7986 37.6227 18.2749C37.6227 14.6156 32.6031 14.2748 32.6031 12.6838C32.6035 11.0925 36.1065 11.2969 37.6456 12.1609Z" fill="#E8E8E8"/>
<path d="M14.4401 16.8115L13.2707 10.3543C13.2707 10.3543 13.1292 9.06152 11.622 9.06152H6.14435L6.08008 9.30465C6.08008 9.30465 8.71287 9.89153 11.2381 12.0904C13.6527 14.1921 14.4401 16.8115 14.4401 16.8115Z" fill="#E6A540"/>
</svg>
