<svg width="57" height="31" viewBox="0 0 57 31" fill="none" xmlns="http://www.w3.org/2000/svg">
<path d="M54 0H3C1.34315 0 0 1.34315 0 3V28C0 29.6569 1.34314 31 3 31H54C55.6569 31 57 29.6569 57 28V3C57 1.34315 55.6569 0 54 0Z" fill="#313131"/>
<path fill-rule="evenodd" clip-rule="evenodd" d="M43.311 18.2606L43.2113 18.1738C42.9697 17.9639 42.9272 17.5798 43.1475 17.3337L45.7344 14.3215C45.9408 14.0757 46.3174 14.0321 46.559 14.2567L46.6587 14.3433C46.9004 14.5535 46.9429 14.9372 46.7224 15.1834L44.1354 18.1956C43.9293 18.4414 43.5668 18.4706 43.311 18.2604V18.2606Z" fill="url(#paint0_linear_230_1421)"/>
<path opacity="0.4" fill-rule="evenodd" clip-rule="evenodd" d="M45.3867 14.8437L45.337 14.7856L44.939 15.2491L44.9814 15.2998C45.6635 15.995 45.3725 16.6973 45.2161 16.9434L45.2728 16.8783C45.3653 16.7696 45.5075 16.6033 45.6566 16.4219C45.813 16.1469 46.0336 15.4953 45.3867 14.8437Z" fill="url(#paint1_linear_230_1421)"/>
<path opacity="0.4" fill-rule="evenodd" clip-rule="evenodd" d="M46.2392 15.7482L46.3459 15.6251C46.3528 15.6104 46.367 15.5963 46.3742 15.5815C46.2603 15.712 46.1395 15.8495 46.0259 15.9869C46.1112 15.8928 46.1823 15.8133 46.2392 15.7482Z" fill="url(#paint2_radial_230_1421)"/>
<path fill-rule="evenodd" clip-rule="evenodd" d="M46.7373 14.4165L44.1503 11.4043C43.9437 11.1582 43.567 11.1145 43.3254 11.3392L43.2256 11.4261C42.9843 11.636 42.9418 12.0197 43.1624 12.2659L45.344 14.7855L45.3938 14.8435C46.0407 15.5024 45.8204 16.1541 45.6568 16.4291C45.7848 16.2771 45.9129 16.1252 46.0337 15.9874C46.1473 15.8499 46.2681 15.7124 46.3821 15.582C46.4956 15.4518 46.6023 15.3287 46.6734 15.2492C46.922 15.0028 46.9575 14.6624 46.7373 14.4162V14.4165Z" fill="url(#paint3_linear_230_1421)"/>
<path fill-rule="evenodd" clip-rule="evenodd" d="M46.5952 18.2606L46.4954 18.1738C46.2538 17.9639 46.2113 17.5798 46.4319 17.3337L49.0189 14.3215C49.2249 14.0757 49.6015 14.0321 49.8432 14.2567L49.9429 14.3433C50.1845 14.5535 50.227 14.9372 50.0068 15.1834L47.4198 18.1956C47.2135 18.4414 46.851 18.4706 46.5952 18.2604V18.2606Z" fill="url(#paint4_linear_230_1421)"/>
<path opacity="0.4" fill-rule="evenodd" clip-rule="evenodd" d="M48.6987 14.8139L48.649 14.7559L48.251 15.2194L48.2938 15.27C48.9759 15.9649 48.6846 16.6675 48.5281 16.9136L48.5851 16.8485C48.6776 16.7395 48.8195 16.5732 48.9689 16.3921C49.1251 16.1171 49.3456 15.4655 48.6987 14.8139Z" fill="url(#paint5_linear_230_1421)"/>
<path opacity="0.4" fill-rule="evenodd" clip-rule="evenodd" d="M49.5167 15.7482L49.6237 15.6251C49.6307 15.6104 49.6448 15.5963 49.652 15.5815C49.5382 15.712 49.4173 15.8495 49.3037 15.9869C49.389 15.8928 49.467 15.8133 49.5167 15.7482Z" fill="url(#paint6_radial_230_1421)"/>
<path fill-rule="evenodd" clip-rule="evenodd" d="M50.0153 14.4165L47.428 11.4043C47.2219 11.1582 46.845 11.1145 46.6033 11.3392L46.5039 11.4261C46.2623 11.636 46.2195 12.0197 46.4401 12.2659L48.622 14.7855L48.6717 14.8435C49.3186 15.5024 49.0981 16.1541 48.9348 16.4291C49.0628 16.2771 49.1906 16.1252 49.3114 15.9874C49.4253 15.8499 49.5461 15.7124 49.6597 15.582C49.7736 15.4518 49.88 15.3287 49.951 15.2492C50.1999 15.0028 50.2355 14.6624 50.0153 14.4162V14.4165Z" fill="url(#paint7_linear_230_1421)"/>
<path fill-rule="evenodd" clip-rule="evenodd" d="M6.97717 18.2318C6.87745 18.1305 6.8208 17.9786 6.8208 17.7901V11.8313C6.8208 11.6358 6.87745 11.4839 6.99828 11.3605C7.11909 11.2375 7.26853 11.1797 7.46045 11.1797C7.65239 11.1797 7.82293 11.2375 7.93655 11.3605C8.05731 11.4836 8.11431 11.6358 8.11431 11.8313V17.3269H10.9076C11.3056 17.3269 11.5117 17.5078 11.5117 17.8629C11.5117 18.2173 11.3056 18.3985 10.9076 18.3985H7.42461C7.23298 18.3985 7.08354 18.3404 6.97717 18.2318ZM12.5211 18.2753C12.4003 18.1522 12.3433 17.9927 12.3433 17.7901V11.824C12.3433 11.6285 12.4003 11.4766 12.5211 11.3535C12.6419 11.2304 12.791 11.1724 12.9829 11.1724C13.1748 11.1724 13.3454 11.2304 13.4593 11.3535C13.5802 11.4766 13.6371 11.6285 13.6371 11.824V17.7901C13.6371 17.9856 13.5802 18.1522 13.4593 18.2753C13.3385 18.3985 13.1818 18.4564 12.9829 18.4564C12.798 18.4564 12.6419 18.3985 12.5211 18.2753Z" fill="white"/>
<path d="M20.9155 19.391C20.9865 19.5141 21.029 19.6298 21.029 19.7531C21.029 19.905 20.9724 20.0352 20.8516 20.1294C20.7307 20.2236 20.5885 20.2814 20.4322 20.2814C20.3114 20.2814 20.1974 20.2525 20.0911 20.1945C19.9914 20.1368 19.8989 20.0497 19.8281 19.9413L19.2451 18.9564C19.1526 18.7973 19.0318 18.6813 18.8826 18.6089C18.7335 18.5365 18.5416 18.4932 18.2999 18.4932C17.6102 18.4932 17.0203 18.3409 16.5159 18.0515C16.0112 17.7474 15.6274 17.3201 15.3572 16.7771C15.0871 16.2195 14.9521 15.5678 14.9521 14.8293C14.9521 14.0836 15.0943 13.4393 15.3572 12.8816C15.6274 12.3313 16.0182 11.9114 16.5159 11.6072C17.0203 11.3033 17.6102 11.1655 18.2999 11.1655C18.9751 11.1655 19.572 11.3178 20.0697 11.6072C20.5744 11.9114 20.958 12.3386 21.2282 12.8816C21.4982 13.4322 21.6332 14.0836 21.6332 14.8293C21.6332 15.6332 21.4771 16.3355 21.1571 16.9073C20.8444 17.4867 20.3894 17.9066 19.7994 18.1746C20.1053 18.2758 20.3538 18.5073 20.56 18.848L20.9155 19.391ZM19.7997 16.7627C20.1619 16.3063 20.3469 15.6547 20.3469 14.8149C20.3469 13.9605 20.1619 13.3233 19.7994 12.8672C19.437 12.4108 18.9396 12.1938 18.2857 12.1938C17.6316 12.1938 17.127 12.4182 16.7645 12.8672C16.402 13.3236 16.2173 13.9605 16.2173 14.8149C16.2173 15.6691 16.4023 16.3063 16.7645 16.7627C17.127 17.2188 17.6388 17.4432 18.2857 17.4432C18.9323 17.4432 19.437 17.2188 19.7994 16.7627H19.7997ZM23.1969 18.2758C23.0761 18.1528 23.0194 17.9932 23.0194 17.7906V11.8463C23.0194 11.6508 23.0761 11.4989 23.1899 11.3899C23.3036 11.2886 23.453 11.2309 23.645 11.2309H26.0969C26.8504 11.2309 27.4332 11.419 27.8525 11.8101C28.2717 12.1867 28.485 12.7296 28.485 13.4175C28.485 14.1053 28.272 14.6483 27.8525 15.0322C27.4334 15.423 26.8504 15.6114 26.0969 15.6114H24.3129V17.798C24.3129 18.0079 24.256 18.1673 24.1352 18.283C24.0143 18.4064 23.858 18.464 23.6591 18.464C23.4672 18.457 23.3036 18.399 23.1969 18.2756V18.2758ZM25.9336 14.612C26.8149 14.612 27.2626 14.214 27.2626 13.4319C27.2626 12.6499 26.8146 12.2518 25.9336 12.2518H24.3126V14.605L25.9333 14.612H25.9336ZM35.2871 17.8775C35.2871 18.0297 35.2232 18.1601 35.1021 18.2758C34.9816 18.3771 34.8394 18.4349 34.6757 18.4349C34.5763 18.4349 34.4696 18.4064 34.3774 18.3483C34.285 18.2903 34.2069 18.1961 34.1569 18.0804L33.5528 16.7191H30.0559L29.4518 18.0804C29.3949 18.2035 29.3238 18.2903 29.2313 18.3483C29.1388 18.4064 29.0394 18.4352 28.9258 18.4352C28.7766 18.4352 28.6272 18.3771 28.5067 18.2758C28.3786 18.1746 28.3217 18.0368 28.3217 17.8775C28.3217 17.7906 28.343 17.6967 28.3786 17.6096L31.1361 11.5784C31.193 11.4479 31.2855 11.3396 31.4136 11.2671C31.5344 11.1947 31.6622 11.1655 31.8044 11.1655C31.9466 11.1655 32.0743 11.2018 32.1952 11.2671C32.3162 11.3396 32.4085 11.4409 32.4727 11.5784L35.2374 17.6098C35.2657 17.704 35.2871 17.7836 35.2871 17.8778V17.8775ZM30.4895 15.7053H33.1265L31.8044 12.6931L30.4892 15.7053H30.4895Z" fill="white"/>
<path fill-rule="evenodd" clip-rule="evenodd" d="M40.2628 11.1797C40.4122 11.1797 40.5472 11.2375 40.668 11.3605C40.7888 11.4836 40.8458 11.614 40.8458 11.7878C40.8458 11.9182 40.7961 12.0557 40.6964 12.1788L38.429 14.9955V17.8119C38.429 18.0218 38.3721 18.1812 38.2513 18.3042C38.1304 18.4273 37.9813 18.4779 37.7966 18.4779C37.6047 18.4779 37.4411 18.4202 37.3203 18.3042C37.1994 18.1885 37.1425 18.0292 37.1425 17.8119V14.9955L34.8894 12.1717C34.79 12.0483 34.7402 11.9182 34.7402 11.7807C34.7402 11.6214 34.7969 11.4766 34.918 11.3535C35.0388 11.2304 35.181 11.1724 35.323 11.1724C35.4935 11.1724 35.6288 11.2448 35.7496 11.3967L37.7894 13.9744L39.8223 11.3967C39.943 11.2519 40.0922 11.1797 40.2628 11.1797Z" fill="white"/>
<defs>
<linearGradient id="paint0_linear_230_1421" x1="43.4784" y1="17.2757" x2="46.5582" y2="15.5324" gradientUnits="userSpaceOnUse">
<stop stop-color="#1FADC3"/>
<stop offset="0.7072" stop-color="#36B98F"/>
</linearGradient>
<linearGradient id="paint1_linear_230_1421" x1="45.3624" y1="15.6074" x2="45.681" y2="15.3461" gradientUnits="userSpaceOnUse">
<stop stop-color="#123F06" stop-opacity="0"/>
<stop offset="1" stop-color="#123F06"/>
</linearGradient>
<radialGradient id="paint2_radial_230_1421" cx="0" cy="0" r="1" gradientUnits="userSpaceOnUse" gradientTransform="translate(44.8134 15.5501) scale(1.73309 1.76532)">
<stop offset="0.4185" stop-color="#123F06" stop-opacity="0"/>
<stop offset="1" stop-color="#123F06"/>
</radialGradient>
<linearGradient id="paint3_linear_230_1421" x1="43.6156" y1="12.4578" x2="46.3938" y2="14.1251" gradientUnits="userSpaceOnUse">
<stop stop-color="#9FDB57"/>
<stop offset="1" stop-color="#71CA5E"/>
</linearGradient>
<linearGradient id="paint4_linear_230_1421" x1="46.7599" y1="17.2774" x2="49.8397" y2="15.5343" gradientUnits="userSpaceOnUse">
<stop stop-color="#1FADC3"/>
<stop offset="0.7072" stop-color="#36B98F"/>
</linearGradient>
<linearGradient id="paint5_linear_230_1421" x1="48.6744" y1="15.5776" x2="48.9931" y2="15.3163" gradientUnits="userSpaceOnUse">
<stop stop-color="#123F06" stop-opacity="0"/>
<stop offset="1" stop-color="#123F06"/>
</linearGradient>
<radialGradient id="paint6_radial_230_1421" cx="0" cy="0" r="1" gradientUnits="userSpaceOnUse" gradientTransform="translate(48.0942 15.5501) scale(1.73308 1.76532)">
<stop offset="0.4185" stop-color="#123F06" stop-opacity="0"/>
<stop offset="1" stop-color="#123F06"/>
</radialGradient>
<linearGradient id="paint7_linear_230_1421" x1="46.8946" y1="12.4591" x2="49.6729" y2="14.1265" gradientUnits="userSpaceOnUse">
<stop stop-color="#9FDB57"/>
<stop offset="1" stop-color="#71CA5E"/>
</linearGradient>
</defs>
</svg>
