
<svg width="15px" height="15px" viewBox="0 0 15 15" version="1.1" xmlns="http://www.w3.org/2000/svg" xmlns:xlink="http://www.w3.org/1999/xlink">
    <g id="Page-1" stroke="none" stroke-width="1" fill="none" fill-rule="evenodd">
        <g id="rework" transform="translate(-854.000000, -178.000000)" fill="#3385E4" fill-rule="nonzero" stroke="#3385E4" stroke-width="0.6">
            <g id="wallet" transform="translate(855.000000, 179.000000)">
                <path d="M12.9686126,6.09005105 L12.3413724,6.09005105 L12.3413724,3.20471471 C12.3413724,2.51298198 11.7786246,1.95023423 11.0868919,1.95023423 L10.2373634,1.95023423 L9.368003,0.38715015 C9.2355045,0.14827027 8.98335135,0 8.70988288,0 C8.58242042,0 8.45597297,0.0328708709 8.34432132,0.0948258258 L5.00788889,1.9501952 L1.28106607,1.9501952 C0.589333333,1.9501952 0.0265855856,2.51294294 0.0265855856,3.20467568 L0.0265855856,11.8187568 C0.0265855856,12.5104895 0.589333333,13.0732372 1.28106607,13.0732372 L11.0868919,13.0732372 C11.7786246,13.0732372 12.3413724,12.5104895 12.3413724,11.8187568 L12.3413724,9.28894895 L12.9686126,9.28894895 L12.9686126,6.09005105 Z M11.0868919,2.452003 C11.4732613,2.452003 11.7888919,2.74553754 11.8312883,3.12113213 L10.8884174,3.12113213 L10.5165706,2.452003 L11.0868919,2.452003 Z M8.58843243,0.53339039 C8.7060961,0.467414414 8.86443844,0.513558559 8.9293994,0.630753754 L10.3143483,3.1208979 L3.93505706,3.1208979 L8.58843243,0.53339039 Z M11.8395646,11.8187568 C11.8395646,12.2337417 11.5018378,12.5714685 11.0868529,12.5714685 L1.28106607,12.5714685 C0.866081081,12.5714685 0.528354354,12.2337417 0.528354354,11.8187568 L0.528354354,3.20471471 C0.528354354,2.78972973 0.866081081,2.452003 1.28106607,2.452003 L4.10565766,2.452003 L2.90235736,3.12117117 L1.43788589,3.12117117 C1.29914114,3.12117117 1.18698198,3.23356456 1.18698198,3.37207508 C1.18698198,3.51058559 1.29914114,3.62297898 1.43788589,3.62297898 L1.99989189,3.62297898 L11.1674294,3.62297898 L11.8395646,3.62297898 L11.8395646,6.09028529 L10.0047688,6.09028529 C9.1527027,6.09028529 8.45925225,6.78377477 8.45925225,7.6358018 L8.45925225,7.74370571 C8.45925225,8.59577177 9.15274174,9.28922222 10.0047688,9.28922222 L11.8395646,9.28922222 L11.8395646,11.8187568 Z M12.4668048,8.78718018 L12.3413724,8.78718018 L10.0047688,8.78718018 C9.42921622,8.78718018 8.96102102,8.31902402 8.96102102,7.74343243 L8.96102102,7.63552853 C8.96102102,7.05997598 9.42917718,6.59178078 10.0047688,6.59178078 L12.3413724,6.59178078 L12.4668048,6.59178078 L12.4668048,8.78718018 Z M10.7732523,7.71009309 C10.7732523,8.0161982 10.5253544,8.26405706 10.2192883,8.26405706 C9.91318318,8.26405706 9.66532432,8.01615916 9.66532432,7.71009309 C9.66532432,7.40402703 9.91322222,7.15612913 10.2192883,7.15612913 C10.5253934,7.15609009 10.7732523,7.40422222 10.7732523,7.71009309 Z" id="Shape"></path>
            </g>
        </g>
    </g>
</svg>